<svg width="33" height="33" viewBox="0 0 33 33" fill="none" xmlns="http://www.w3.org/2000/svg">
<g clip-path="url(#clip0_1335_4334)">
<path d="M32.5 16.5C32.5 20.7435 30.8143 24.8131 27.8137 27.8137C24.8131 30.8143 20.7435 32.5 16.5 32.5C12.2565 32.5 8.18687 30.8143 5.18629 27.8137C2.18571 24.8131 0.5 20.7435 0.5 16.5C0.5 12.2565 2.18571 8.18687 5.18629 5.18629C8.18687 2.18571 12.2565 0.5 16.5 0.5C20.7435 0.5 24.8131 2.18571 27.8137 5.18629C30.8143 8.18687 32.5 12.2565 32.5 16.5ZM17.074 12.312C15.5167 12.96 12.406 14.3 7.742 16.332C6.986 16.632 6.58933 16.9267 6.552 17.216C6.492 17.702 7.102 17.894 7.932 18.156L8.282 18.266C9.098 18.532 10.198 18.842 10.768 18.854C11.288 18.8673 11.8667 18.654 12.504 18.214C16.8627 15.2727 19.112 13.786 19.252 13.754C19.352 13.73 19.492 13.702 19.584 13.786C19.676 13.87 19.668 14.026 19.658 14.068C19.598 14.326 17.204 16.55 15.966 17.702C15.58 18.062 15.306 18.316 15.25 18.374C15.1267 18.5001 15.0014 18.6241 14.874 18.746C14.114 19.478 13.546 20.026 14.904 20.922C15.558 21.354 16.082 21.708 16.604 22.064C17.172 22.452 17.74 22.838 18.476 23.322C18.6627 23.4447 18.8427 23.5693 19.016 23.696C19.678 24.168 20.276 24.592 21.01 24.524C21.438 24.484 21.88 24.084 22.104 22.884C22.634 20.05 23.676 13.912 23.916 11.382C23.9311 11.1717 23.9224 10.9604 23.89 10.752C23.8706 10.584 23.7893 10.4293 23.662 10.318C23.4798 10.1929 23.263 10.1278 23.042 10.132C22.442 10.142 21.516 10.464 17.074 12.312Z" fill="black"/>
</g>
<defs>
<clipPath id="clip0_1335_4334">
<rect width="32" height="32" fill="white" transform="translate(0.5 0.5)"/>
</clipPath>
</defs>
</svg>
