<svg width="33" height="33" viewBox="0 0 33 33" fill="none" xmlns="http://www.w3.org/2000/svg">
<g clip-path="url(#clip0_1333_3162)">
<path d="M21.411 0.5H11.588C2.624 0.5 0.499 2.625 0.499 11.589V21.412C0.499 30.376 2.624 32.501 11.588 32.501H21.411C30.375 32.501 32.5 30.376 32.5 21.412V11.589C32.5 2.625 30.354 0.5 21.411 0.5ZM26.333 23.328H24.01C23.13 23.328 22.859 22.63 21.276 21.026C19.901 19.693 19.292 19.516 18.953 19.516C18.474 19.516 18.338 19.651 18.338 20.308V22.407C18.338 22.97 18.161 23.308 16.671 23.308C14.207 23.308 11.473 21.818 9.556 19.042C6.665 14.974 5.874 11.927 5.874 11.297C5.874 10.958 6.009 10.641 6.66 10.641H8.988C9.577 10.641 9.801 10.912 10.03 11.542C11.181 14.865 13.098 17.776 13.889 17.776C14.181 17.776 14.316 17.641 14.316 16.896V13.464C14.227 11.881 13.394 11.745 13.394 11.183C13.394 10.912 13.618 10.641 13.977 10.641H17.638C18.133 10.641 18.315 10.912 18.315 11.495V16.125C18.315 16.625 18.539 16.802 18.674 16.802C18.966 16.802 19.216 16.625 19.757 16.083C21.429 14.208 22.627 11.317 22.627 11.317C22.783 10.978 23.054 10.661 23.643 10.661H25.971C26.669 10.661 26.825 11.02 26.669 11.52C26.377 12.874 23.528 16.895 23.528 16.895C23.283 17.301 23.189 17.478 23.528 17.931C23.778 18.27 24.591 18.973 25.132 19.603C26.127 20.733 26.892 21.681 27.096 22.337C27.325 22.988 26.987 23.327 26.33 23.327L26.333 23.328Z" fill="black"/>
</g>
<defs>
<clipPath id="clip0_1333_3162">
<rect width="32" height="32" fill="white" transform="translate(0.5 0.5)"/>
</clipPath>
</defs>
</svg>
